<svg width="24" height="26" fill="none" xmlns="http://www.w3.org/2000/svg"><path d="M21.503 20.791 20.431 7.286a1.688 1.688 0 0 0-1.675-1.552H16.64V5.64A4.644 4.644 0 0 0 12 1a4.644 4.644 0 0 0-4.64 4.64v.094H5.245c-.873 0-1.609.682-1.675 1.55l-1.072 13.51a3.92 3.92 0 0 0 1.03 2.954A3.92 3.92 0 0 0 6.392 25h11.214a3.92 3.92 0 0 0 2.867-1.252 3.92 3.92 0 0 0 1.03-2.957ZM8.767 5.64A3.237 3.237 0 0 1 12 2.406a3.237 3.237 0 0 1 3.233 3.233v.095H8.767V5.64Zm10.676 17.153a2.476 2.476 0 0 1-1.836.802H6.393a2.476 2.476 0 0 1-1.836-.802 2.475 2.475 0 0 1-.659-1.89L4.97 7.395a.276.276 0 0 1 .274-.254H7.36v1.731a.703.703 0 0 0 1.406 0v-1.73h6.466v1.73a.703.703 0 0 0 1.406 0v-1.73h2.117c.143 0 .263.11.274.254l1.072 13.506a2.477 2.477 0 0 1-.66 1.891Z" fill="#212121" stroke="#212121" stroke-width=".4"/></svg>