<svg width="391" height="62" fill="none" xmlns="http://www.w3.org/2000/svg"><path d="M78.248 37.768h.736c.853 0 1.28-.395 1.28-1.184V23.56h-2.112c-.448 0-.779.096-.992.288-.192.192-.288.501-.288.928v1.312h-3.52v-5.76h18.816v5.76H88.68v-1.312c0-.427-.107-.736-.32-.928-.192-.192-.512-.288-.96-.288h-2.112v13.024c0 .79.437 1.184 1.312 1.184h.736V41h-9.088v-3.232Zm14.518-.032h.608c.853 0 1.28-.405 1.28-1.216V24.36c0-.427-.096-.747-.288-.96-.192-.213-.512-.32-.96-.32h-.64v-3.264h6.336v7.136c.81-.683 1.6-1.152 2.368-1.408.789-.256 1.728-.384 2.816-.384 1.749 0 3.018.459 3.808 1.376.81.896 1.216 2.23 1.216 4v6.016c0 .79.416 1.184 1.248 1.184h.736V41h-7.04V30.568c0-.79-.171-1.365-.512-1.728-.342-.363-.864-.544-1.568-.544-.768 0-1.376.203-1.824.608-.427.405-.64 1.024-.64 1.856v5.792c0 .405.085.704.256.896.17.192.458.288.864.288h.64V41h-8.704v-3.264Zm28.106 3.744c-2.688 0-4.789-.672-6.304-2.016-1.493-1.365-2.24-3.37-2.24-6.016 0-2.773.704-4.843 2.112-6.208 1.43-1.387 3.456-2.08 6.08-2.08 2.56 0 4.502.704 5.824 2.112 1.344 1.387 2.016 3.253 2.016 5.6v1.536h-11.008c0 1.387.288 2.39.864 3.008.576.619 1.483.928 2.72.928 1.046 0 1.931-.16 2.656-.48V36.68h4.224v2.624c-.81.725-1.781 1.27-2.912 1.632-1.109.363-2.453.544-4.032.544Zm2.496-9.792c0-1.11-.245-1.941-.736-2.496-.49-.576-1.216-.864-2.176-.864-1.024 0-1.802.288-2.336.864-.512.576-.768 1.408-.768 2.496h6.016Zm6.335 6.048h.608c.448 0 .768-.096.96-.288.214-.213.32-.523.32-.928v-6.432c0-.384-.096-.672-.288-.864-.17-.213-.469-.32-.896-.32h-.672V25.64h6.016l.384 1.632c.384-.576.918-.992 1.6-1.248a6.147 6.147 0 0 1 2.176-.384h1.856v3.264h-2.592c-.896 0-1.546.213-1.952.64-.384.405-.576 1.045-.576 1.92v5.088c0 .405.086.704.256.896.192.192.502.288.928.288h.608V41h-8.736v-3.264Zm17.498 3.744c-1.835 0-3.222-.373-4.16-1.12-.918-.768-1.376-1.845-1.376-3.232 0-1.579.522-2.752 1.568-3.52 1.045-.79 2.581-1.248 4.608-1.376l3.392-.224v-1.792c0-.661-.15-1.13-.448-1.408-.299-.299-.79-.448-1.473-.448-.746 0-1.418.203-2.015.608v1.152h-4.224v-3.168c1.962-1.195 4.106-1.792 6.432-1.792 2.304 0 4.01.501 5.12 1.504 1.13 1.003 1.696 2.357 1.696 4.064v5.952c0 .405.074.704.224.896.17.17.437.256.8.256h.48V41h-4.256l-.448-2.016c-.768.917-1.59 1.568-2.464 1.952-.854.363-2.006.544-3.456.544Zm1.152-3.136c.938 0 1.653-.203 2.144-.608.49-.427.736-1.045.736-1.856v-1.216l-2.88.224c-.747.064-1.28.235-1.6.512-.299.277-.448.715-.448 1.312 0 1.088.682 1.632 2.048 1.632Zm9.718 6.048h.608c.853 0 1.28-.405 1.28-1.216V30.152c0-.81-.427-1.216-1.28-1.216h-.448V25.64h5.248l.32 2.176c1.28-1.77 3.104-2.656 5.472-2.656 2.176 0 3.904.693 5.184 2.08 1.28 1.365 1.92 3.339 1.92 5.92 0 2.667-.608 4.725-1.824 6.176-1.195 1.43-2.923 2.144-5.184 2.144-1.067 0-1.952-.128-2.656-.384-.704-.235-1.398-.65-2.08-1.248v3.36c0 .79.416 1.184 1.248 1.184h.608v3.264h-8.416v-3.264Zm10.016-5.92c1.216 0 2.069-.416 2.56-1.248.49-.853.736-2.197.736-4.032 0-1.792-.246-3.093-.736-3.904-.47-.81-1.302-1.216-2.496-1.216-1.024 0-1.846.416-2.464 1.248-.598.832-.896 1.877-.896 3.136v1.76c0 1.323.298 2.368.896 3.136.597.747 1.397 1.12 2.4 1.12Zm11.248-18.848h5.184v3.84h-5.184v-3.84Zm-1.952 18.112h.768c.448 0 .768-.096.96-.288.214-.213.32-.533.32-.96v-6.304c0-.427-.096-.747-.288-.96-.192-.213-.512-.32-.96-.32h-.8V25.64h7.104v10.912c0 .79.416 1.184 1.248 1.184h.768V41h-9.12v-3.264Zm17.141 3.744c-2.859 0-5.195-.683-7.008-2.048V36.68h4.576v1.088c.512.341 1.226.512 2.144.512.704 0 1.226-.085 1.568-.256.362-.192.544-.512.544-.96 0-.427-.15-.747-.448-.96-.278-.213-.864-.501-1.76-.864.085.043-.491-.203-1.728-.736-1.088-.47-1.952-.896-2.592-1.28a5.085 5.085 0 0 1-1.568-1.44c-.384-.576-.576-1.29-.576-2.144 0-1.472.586-2.581 1.76-3.328 1.194-.768 2.805-1.152 4.832-1.152 1.365 0 2.634.17 3.808.512 1.194.341 2.229.853 3.104 1.536v2.656h-4.416v-.96c-.512-.363-1.163-.544-1.952-.544-1.323 0-1.984.427-1.984 1.28 0 .49.256.885.768 1.184.512.299 1.333.661 2.464 1.088l.768.288c1.621.619 2.805 1.27 3.552 1.952.746.683 1.12 1.653 1.12 2.912 0 2.944-2.326 4.416-6.976 4.416Zm16.38 0c-2.176 0-3.808-.47-4.896-1.408-1.067-.939-1.6-2.293-1.6-4.064v-7.2h-2.368V25.64h2.368v-3.168l5.056-1.376v4.544h4.192v3.168h-4.192v7.648c0 .661.138 1.152.416 1.472.298.299.736.448 1.312.448.704 0 1.258-.192 1.664-.576v-1.376h4.064V39.4c-1.579 1.387-3.584 2.08-6.016 2.08Zm12.932 0c-2.858 0-5.194-.683-7.008-2.048V36.68h4.576v1.088c.512.341 1.227.512 2.144.512.704 0 1.227-.085 1.568-.256.363-.192.544-.512.544-.96 0-.427-.149-.747-.448-.96-.277-.213-.864-.501-1.76-.864.086.043-.49-.203-1.728-.736-1.088-.47-1.952-.896-2.592-1.28a5.096 5.096 0 0 1-1.568-1.44c-.384-.576-.576-1.29-.576-2.144 0-1.472.587-2.581 1.76-3.328 1.195-.768 2.806-1.152 4.832-1.152 1.366 0 2.635.17 3.808.512 1.195.341 2.23.853 3.104 1.536v2.656h-4.416v-.96c-.512-.363-1.162-.544-1.952-.544-1.322 0-1.984.427-1.984 1.28 0 .49.256.885.768 1.184.512.299 1.334.661 2.464 1.088l.768.288c1.622.619 2.806 1.27 3.552 1.952.747.683 1.12 1.653 1.12 2.912 0 2.944-2.325 4.416-6.976 4.416Zm16.561 0c-2.646 0-4.683-.693-6.112-2.08-1.43-1.408-2.144-3.424-2.144-6.048 0-2.645.704-4.672 2.112-6.08 1.408-1.408 3.456-2.112 6.144-2.112s4.736.704 6.144 2.112c1.408 1.408 2.112 3.435 2.112 6.08 0 2.624-.715 4.64-2.144 6.048-1.43 1.387-3.467 2.08-6.112 2.08Zm0-3.296c1.152 0 1.984-.384 2.496-1.152.512-.768.768-1.995.768-3.68 0-1.728-.256-2.976-.768-3.744-.512-.768-1.344-1.152-2.496-1.152s-1.984.384-2.496 1.152c-.491.768-.736 2.016-.736 3.744 0 1.685.245 2.912.736 3.68.512.768 1.344 1.152 2.496 1.152Zm9.588-.448h.608c.853 0 1.28-.405 1.28-1.216v-6.4c0-.405-.096-.704-.288-.896-.192-.192-.502-.288-.928-.288h-.672V25.64h5.056l.224 2.08c1.344-1.707 3.296-2.56 5.856-2.56 1.856 0 3.21.459 4.064 1.376.874.896 1.312 2.23 1.312 4v6.016c0 .79.416 1.184 1.248 1.184h.736V41h-7.04V30.568c0-.81-.171-1.387-.512-1.728-.32-.363-.843-.544-1.568-.544-.768 0-1.366.203-1.792.608-.427.405-.64 1.024-.64 1.856v5.792c0 .405.085.704.256.896.17.192.458.288.864.288h.64V41h-8.704v-3.264Zm28.139 3.744c-1.643 0-3.115-.299-4.416-.896-1.302-.619-2.326-1.525-3.072-2.72-.747-1.195-1.12-2.645-1.12-4.352 0-2.71.768-4.779 2.304-6.208 1.536-1.43 3.648-2.144 6.336-2.144 1.472 0 2.698.17 3.68.512 1.002.32 1.984.853 2.944 1.6v3.648h-4.224v-1.792a3.513 3.513 0 0 0-1.056-.448c-.363-.085-.822-.128-1.376-.128-1.088 0-1.963.416-2.624 1.248-.662.832-.992 2.07-.992 3.712 0 1.557.394 2.71 1.184 3.456.81.747 1.952 1.12 3.424 1.12 1.664 0 3.061-.405 4.192-1.216l1.632 2.624c-1.003.747-1.995 1.259-2.976 1.536-.96.299-2.24.448-3.84.448Zm13.077 0c-1.835 0-3.222-.373-4.16-1.12-.918-.768-1.376-1.845-1.376-3.232 0-1.579.522-2.752 1.568-3.52 1.045-.79 2.581-1.248 4.608-1.376l3.392-.224v-1.792c0-.661-.15-1.13-.448-1.408-.299-.299-.79-.448-1.473-.448-.746 0-1.418.203-2.015.608v1.152h-4.224v-3.168c1.962-1.195 4.106-1.792 6.432-1.792 2.304 0 4.01.501 5.12 1.504 1.13 1.003 1.696 2.357 1.696 4.064v5.952c0 .405.074.704.224.896.17.17.437.256.8.256h.48V41h-4.256l-.448-2.016c-.768.917-1.59 1.568-2.464 1.952-.854.363-2.006.544-3.456.544Zm1.152-3.136c.938 0 1.653-.203 2.144-.608.49-.427.736-1.045.736-1.856v-1.216l-2.88.224c-.747.064-1.28.235-1.6.512-.299.277-.448.715-.448 1.312 0 1.088.682 1.632 2.048 1.632Zm10.507-.608h.768c.448 0 .768-.096.96-.288.213-.213.32-.533.32-.96V24.104c0-.427-.086-.725-.256-.896-.15-.192-.427-.288-.832-.288h-.96v-3.104h7.104v16.736c0 .79.416 1.184 1.248 1.184h.768V41h-9.12v-3.264Zm10.156 0h.768c.448 0 .768-.096.96-.288.213-.213.32-.533.32-.96V24.104c0-.427-.086-.725-.256-.896-.15-.192-.427-.288-.832-.288h-.96v-3.104h7.104v16.736c0 .79.416 1.184 1.248 1.184h.768V41h-9.12v-3.264Zm10.476-.128h3.712V41h-3.712v-3.392Zm14.007 3.872c-1.643 0-3.115-.299-4.416-.896-1.302-.619-2.326-1.525-3.072-2.72-.747-1.195-1.12-2.645-1.12-4.352 0-2.71.768-4.779 2.304-6.208 1.536-1.43 3.648-2.144 6.336-2.144 1.472 0 2.698.17 3.68.512 1.002.32 1.984.853 2.944 1.6v3.648h-4.224v-1.792a3.513 3.513 0 0 0-1.056-.448c-.363-.085-.822-.128-1.376-.128-1.088 0-1.963.416-2.624 1.248-.662.832-.992 2.07-.992 3.712 0 1.557.394 2.71 1.184 3.456.81.747 1.952 1.12 3.424 1.12 1.664 0 3.061-.405 4.192-1.216l1.632 2.624c-1.003.747-1.995 1.259-2.976 1.536-.96.299-2.24.448-3.84.448Zm16.429 0c-2.645 0-4.683-.693-6.112-2.08-1.429-1.408-2.144-3.424-2.144-6.048 0-2.645.704-4.672 2.112-6.08 1.408-1.408 3.456-2.112 6.144-2.112s4.736.704 6.144 2.112c1.408 1.408 2.112 3.435 2.112 6.08 0 2.624-.715 4.64-2.144 6.048-1.429 1.387-3.467 2.08-6.112 2.08Zm0-3.296c1.152 0 1.984-.384 2.496-1.152.512-.768.768-1.995.768-3.68 0-1.728-.256-2.976-.768-3.744-.512-.768-1.344-1.152-2.496-1.152s-1.984.384-2.496 1.152c-.491.768-.736 2.016-.736 3.744 0 1.685.245 2.912.736 3.68.512.768 1.344 1.152 2.496 1.152Zm9.588-.448h.608c.853 0 1.28-.405 1.28-1.216v-6.4c0-.81-.416-1.216-1.248-1.216h-.64V25.64h4.928l.256 2.176c1.258-1.77 3.146-2.656 5.664-2.656 1.749 0 3.125.715 4.128 2.144.554-.747 1.216-1.29 1.984-1.632.789-.341 1.696-.512 2.72-.512 1.856 0 3.2.448 4.032 1.344.832.896 1.248 2.24 1.248 4.032v6.016c0 .79.405 1.184 1.216 1.184h.736V41h-6.944V30.536c0-.81-.16-1.387-.48-1.728-.32-.341-.822-.512-1.504-.512-.747 0-1.312.192-1.696.576-.363.384-.544.981-.544 1.792v5.888c0 .405.085.704.256.896.17.192.469.288.896.288h.736V41h-6.56V30.568c0-.79-.16-1.365-.48-1.728-.32-.363-.811-.544-1.472-.544-.768 0-1.344.203-1.728.608-.384.384-.576 1.003-.576 1.856v5.792c0 .405.085.704.256.896.17.192.458.288.864.288h.672V41h-8.608v-3.264Z" fill="#5EB90B"/><circle cx="31" cy="31" r="29.5" stroke="#5EB90B" stroke-width="3"/><path d="M40.142 36.538a.942.942 0 0 1-.862-.56.932.932 0 0 1 .484-1.23c.54-.235.897-.673.98-1.202.068-.436-.071-.853-.372-1.116a.929.929 0 0 1-.086-1.318.945.945 0 0 1 1.328-.085c.787.687 1.157 1.736.99 2.806-.182 1.155-.96 2.137-2.084 2.626a.943.943 0 0 1-.378.079Zm-.964 15.445c-3.658 0-6.673-2.913-6.754-6.562-.051-2.333 1.153-4.562 3.145-5.818a.946.946 0 0 1 1.298.288.93.93 0 0 1-.29 1.29 4.871 4.871 0 0 0-2.272 4.199c.06 2.668 2.289 4.819 4.981 4.733a4.842 4.842 0 0 0 4.566-3.485.946.946 0 0 1 1.207-.623c.354.12.714.172 1.082.167a3.128 3.128 0 0 0 3.065-3.185 3.111 3.111 0 0 0-1.072-2.275.931.931 0 0 1-.319-.627.987.987 0 0 1 .237-.727.966.966 0 0 1 .676-.334 2.673 2.673 0 0 0 1.878-.82c.496-.514.76-1.189.744-1.9a2.645 2.645 0 0 0-1.07-2.07.93.93 0 0 1-.185-1.308.945.945 0 0 1 1.318-.184 4.498 4.498 0 0 1 1.819 3.52 4.482 4.482 0 0 1-1.266 3.233 4.54 4.54 0 0 1-1.558 1.06c.423.72.661 1.543.68 2.39.06 2.75-2.14 5.035-4.905 5.095a5.365 5.365 0 0 1-.831-.05 6.718 6.718 0 0 1-6.174 3.993Z" fill="#5EB90B" stroke="#5EB90B"/><path d="M47.689 35.315a.938.938 0 0 1-.94-.914.938.938 0 0 1 .92-.954 3.622 3.622 0 0 0 2.547-1.113 3.57 3.57 0 0 0 1.008-2.575 3.617 3.617 0 0 0-1.902-3.095l-.379-.176a.928.928 0 0 1-.388-1.354 4.23 4.23 0 0 0 .69-2.42 4.236 4.236 0 0 0-1.327-2.996 4.275 4.275 0 0 0-3.074-1.186 4.293 4.293 0 0 0-3.018 1.319 4.232 4.232 0 0 0-1.195 3.05.938.938 0 0 1-.92.956c-.52-.011-.95-.4-.962-.914a6.083 6.083 0 0 1 1.717-4.384 6.172 6.172 0 0 1 4.337-1.895c3.413-.058 6.249 2.621 6.324 6.01a6.085 6.085 0 0 1-.512 2.588c1.522 1.006 2.45 2.663 2.49 4.456a5.422 5.422 0 0 1-1.53 3.907 5.498 5.498 0 0 1-3.865 1.69h-.021Z" fill="#5EB90B" stroke="#5EB90B"/><path d="M46.464 18.577a.935.935 0 0 1-.927-1.1c.041-.226.06-.456.055-.683-.041-1.863-1.623-3.364-3.476-3.304a3.418 3.418 0 0 0-2.735 1.471.944.944 0 0 1-1.307.242.93.93 0 0 1-.244-1.298 5.31 5.31 0 0 1 4.245-2.283c2.923-.06 5.334 2.239 5.398 5.13a5.29 5.29 0 0 1-.084 1.057.939.939 0 0 1-.925.768Z" fill="#5EB90B" stroke="#5EB90B"/><path d="M33.365 46.334a.938.938 0 0 1-.94-.926l-.267-31.94c-.065-2.943 2.304-5.402 5.283-5.467 2.606-.044 4.875 1.735 5.406 4.26a.935.935 0 0 1-.728 1.105.943.943 0 0 1-1.114-.723c-.346-1.644-1.835-2.837-3.523-2.774-.94.02-1.816.403-2.466 1.077a3.455 3.455 0 0 0-.976 2.494l.266 31.952a.937.937 0 0 1-.933.942h-.008Z" fill="#5EB90B" stroke="#5EB90B"/><path d="M40.809 28.59a5.65 5.65 0 0 1-2.396-.54 5.636 5.636 0 0 1-1.682-1.202.93.93 0 0 1 .033-1.32.946.946 0 0 1 1.33.033c.317.33.694.599 1.122.8.84.393 1.766.469 2.608.21.81-.248 1.444-.779 1.785-1.495.154-.325.241-.672.258-1.035.025-.515.476-.89.985-.889a.938.938 0 0 1 .895.978 4.547 4.547 0 0 1-.437 1.744c-.569 1.195-1.61 2.077-2.931 2.483a5.363 5.363 0 0 1-1.57.233Zm4.361 19.35a.952.952 0 0 1-.248-.033 4.736 4.736 0 0 1-3.503-4.556c0-1.1.39-2.172 1.097-3.017a.945.945 0 0 1 1.325-.121c.4.33.454.918.123 1.315a2.844 2.844 0 0 0-.663 1.822 2.86 2.86 0 0 0 2.116 2.753.933.933 0 0 1-.247 1.837ZM27.122 2h-2.275l.11 15.367c.038.832-.275 1.307-.942 1.347l-3.686.238a3.192 3.192 0 0 0-2.863 2.337c-.94 3.169-1.333 6.417-1.255 9.903v.316c.079 3.486.628 6.734 1.687 9.864.431 1.307 1.647 2.139 2.98 2.218l3.608.08h.078s.431.039.667.276c.196.199.313.555.313 1.03L25.655 60h2.279l-.115-15.26c0-1.347-.51-2.179-.98-2.654-.863-.872-2-.911-2.275-.872h-3.607c-.393 0-.824-.277-.902-.673a29.31 29.31 0 0 1-1.569-9.19v-.317c-.078-3.248.275-6.298 1.137-9.23.118-.435.471-.712.903-.752l3.607-.238c.236 0 1.373-.119 2.236-.99.431-.436.94-1.268.863-2.615L27.122 2Z" fill="#5EB90B" stroke="#5EB90B"/></svg>