<svg width="391" height="62" viewBox="0 0 391 62" fill="none" xmlns="http://www.w3.org/2000/svg">
<path d="M78.248 37.768H78.984C79.8373 37.768 80.264 37.3733 80.264 36.584V23.56H78.152C77.704 23.56 77.3733 23.656 77.16 23.848C76.968 24.04 76.872 24.3493 76.872 24.776V26.088H73.352V20.328H92.168V26.088H88.68V24.776C88.68 24.3493 88.5733 24.04 88.36 23.848C88.168 23.656 87.848 23.56 87.4 23.56H85.288V36.584C85.288 37.3733 85.7253 37.768 86.6 37.768H87.336V41H78.248V37.768ZM92.7658 37.736H93.3738C94.2271 37.736 94.6538 37.3307 94.6538 36.52V24.36C94.6538 23.9333 94.5578 23.6133 94.3658 23.4C94.1738 23.1867 93.8538 23.08 93.4058 23.08H92.7658V19.816H99.1018V26.952C99.9124 26.2693 100.702 25.8 101.47 25.544C102.259 25.288 103.198 25.16 104.286 25.16C106.035 25.16 107.304 25.6187 108.094 26.536C108.904 27.432 109.31 28.7653 109.31 30.536V36.552C109.31 37.3413 109.726 37.736 110.558 37.736H111.294V41H104.254V30.568C104.254 29.7787 104.083 29.2027 103.742 28.84C103.4 28.4773 102.878 28.296 102.174 28.296C101.406 28.296 100.798 28.4987 100.35 28.904C99.9231 29.3093 99.7098 29.928 99.7098 30.76V36.552C99.7098 36.9573 99.7951 37.256 99.9658 37.448C100.136 37.64 100.424 37.736 100.83 37.736H101.47V41H92.7658V37.736ZM120.872 41.48C118.184 41.48 116.083 40.808 114.568 39.464C113.075 38.0987 112.328 36.0933 112.328 33.448C112.328 30.6747 113.032 28.6053 114.44 27.24C115.87 25.8533 117.896 25.16 120.52 25.16C123.08 25.16 125.022 25.864 126.344 27.272C127.688 28.6587 128.36 30.5253 128.36 32.872V34.408H117.352C117.352 35.7947 117.64 36.7973 118.216 37.416C118.792 38.0347 119.699 38.344 120.936 38.344C121.982 38.344 122.867 38.184 123.592 37.864V36.68H127.816V39.304C127.006 40.0293 126.035 40.5733 124.904 40.936C123.795 41.2987 122.451 41.48 120.872 41.48ZM123.368 31.688C123.368 30.5787 123.123 29.7467 122.632 29.192C122.142 28.616 121.416 28.328 120.456 28.328C119.432 28.328 118.654 28.616 118.12 29.192C117.608 29.768 117.352 30.6 117.352 31.688H123.368ZM129.703 37.736H130.311C130.759 37.736 131.079 37.64 131.271 37.448C131.485 37.2347 131.591 36.9253 131.591 36.52V30.088C131.591 29.704 131.495 29.416 131.303 29.224C131.133 29.0107 130.834 28.904 130.407 28.904H129.735V25.64H135.751L136.135 27.272C136.519 26.696 137.053 26.28 137.735 26.024C138.418 25.768 139.143 25.64 139.911 25.64H141.767V28.904H139.175C138.279 28.904 137.629 29.1173 137.223 29.544C136.839 29.9493 136.647 30.5893 136.647 31.464V36.552C136.647 36.9573 136.733 37.256 136.903 37.448C137.095 37.64 137.405 37.736 137.831 37.736H138.439V41H129.703V37.736ZM147.201 41.48C145.366 41.48 143.979 41.1067 143.041 40.36C142.123 39.592 141.665 38.5147 141.665 37.128C141.665 35.5493 142.187 34.376 143.233 33.608C144.278 32.8187 145.814 32.36 147.841 32.232L151.233 32.008V30.216C151.233 29.5547 151.083 29.0853 150.785 28.808C150.486 28.5093 149.995 28.36 149.312 28.36C148.566 28.36 147.894 28.5627 147.297 28.968V30.12H143.073V26.952C145.035 25.7573 147.179 25.16 149.505 25.16C151.809 25.16 153.515 25.6613 154.625 26.664C155.755 27.6667 156.321 29.0213 156.321 30.728V36.68C156.321 37.0853 156.395 37.384 156.545 37.576C156.715 37.7467 156.982 37.832 157.345 37.832H157.825V41H153.569L153.121 38.984C152.353 39.9013 151.531 40.552 150.657 40.936C149.803 41.2987 148.651 41.48 147.201 41.48ZM148.353 38.344C149.291 38.344 150.006 38.1413 150.497 37.736C150.987 37.3093 151.233 36.6907 151.233 35.88V34.664L148.353 34.888C147.606 34.952 147.073 35.1227 146.753 35.4C146.454 35.6773 146.305 36.1147 146.305 36.712C146.305 37.8 146.987 38.344 148.353 38.344ZM158.071 44.392H158.679C159.532 44.392 159.959 43.9867 159.959 43.176V30.152C159.959 29.3413 159.532 28.936 158.679 28.936H158.231V25.64H163.479L163.799 27.816C165.079 26.0453 166.903 25.16 169.271 25.16C171.447 25.16 173.175 25.8533 174.455 27.24C175.735 28.6053 176.375 30.5787 176.375 33.16C176.375 35.8267 175.767 37.8853 174.551 39.336C173.356 40.7653 171.628 41.48 169.367 41.48C168.3 41.48 167.415 41.352 166.711 41.096C166.007 40.8613 165.313 40.4453 164.631 39.848V43.208C164.631 43.9973 165.047 44.392 165.879 44.392H166.487V47.656H158.071V44.392ZM168.087 38.472C169.303 38.472 170.156 38.056 170.647 37.224C171.137 36.3707 171.383 35.0267 171.383 33.192C171.383 31.4 171.137 30.0987 170.647 29.288C170.177 28.4773 169.345 28.072 168.151 28.072C167.127 28.072 166.305 28.488 165.687 29.32C165.089 30.152 164.791 31.1973 164.791 32.456V34.216C164.791 35.5387 165.089 36.584 165.687 37.352C166.284 38.0987 167.084 38.472 168.087 38.472ZM179.335 19.624H184.519V23.464H179.335V19.624ZM177.383 37.736H178.151C178.599 37.736 178.919 37.64 179.111 37.448C179.325 37.2347 179.431 36.9147 179.431 36.488V30.184C179.431 29.7573 179.335 29.4373 179.143 29.224C178.951 29.0107 178.631 28.904 178.183 28.904H177.383V25.64H184.487V36.552C184.487 37.3413 184.903 37.736 185.735 37.736H186.503V41H177.383V37.736ZM194.524 41.48C191.665 41.48 189.329 40.7973 187.516 39.432V36.68H192.092V37.768C192.604 38.1093 193.318 38.28 194.236 38.28C194.94 38.28 195.462 38.1947 195.804 38.024C196.166 37.832 196.348 37.512 196.348 37.064C196.348 36.6373 196.198 36.3173 195.9 36.104C195.622 35.8907 195.036 35.6027 194.14 35.24C194.225 35.2827 193.649 35.0373 192.412 34.504C191.324 34.0347 190.46 33.608 189.82 33.224C189.18 32.84 188.657 32.36 188.252 31.784C187.868 31.208 187.676 30.4933 187.676 29.64C187.676 28.168 188.262 27.0587 189.436 26.312C190.63 25.544 192.241 25.16 194.268 25.16C195.633 25.16 196.902 25.3307 198.076 25.672C199.27 26.0133 200.305 26.5253 201.18 27.208V29.864H196.764V28.904C196.252 28.5413 195.601 28.36 194.812 28.36C193.489 28.36 192.828 28.7867 192.828 29.64C192.828 30.1307 193.084 30.5253 193.596 30.824C194.108 31.1227 194.929 31.4853 196.06 31.912L196.828 32.2C198.449 32.8187 199.633 33.4693 200.38 34.152C201.126 34.8347 201.5 35.8053 201.5 37.064C201.5 40.008 199.174 41.48 194.524 41.48ZM210.904 41.48C208.728 41.48 207.096 41.0107 206.008 40.072C204.941 39.1333 204.408 37.7787 204.408 36.008V28.808H202.04V25.64H204.408V22.472L209.464 21.096V25.64H213.656V28.808H209.464V36.456C209.464 37.1173 209.602 37.608 209.88 37.928C210.178 38.2267 210.616 38.376 211.192 38.376C211.896 38.376 212.45 38.184 212.856 37.8V36.424H216.92V39.4C215.341 40.7867 213.336 41.48 210.904 41.48ZM223.836 41.48C220.978 41.48 218.642 40.7973 216.828 39.432V36.68H221.404V37.768C221.916 38.1093 222.631 38.28 223.548 38.28C224.252 38.28 224.775 38.1947 225.116 38.024C225.479 37.832 225.66 37.512 225.66 37.064C225.66 36.6373 225.511 36.3173 225.212 36.104C224.935 35.8907 224.348 35.6027 223.452 35.24C223.538 35.2827 222.962 35.0373 221.724 34.504C220.636 34.0347 219.772 33.608 219.132 33.224C218.492 32.84 217.97 32.36 217.564 31.784C217.18 31.208 216.988 30.4933 216.988 29.64C216.988 28.168 217.575 27.0587 218.748 26.312C219.943 25.544 221.554 25.16 223.58 25.16C224.946 25.16 226.215 25.3307 227.388 25.672C228.583 26.0133 229.618 26.5253 230.492 27.208V29.864H226.076V28.904C225.564 28.5413 224.914 28.36 224.124 28.36C222.802 28.36 222.14 28.7867 222.14 29.64C222.14 30.1307 222.396 30.5253 222.908 30.824C223.42 31.1227 224.242 31.4853 225.372 31.912L226.14 32.2C227.762 32.8187 228.946 33.4693 229.692 34.152C230.439 34.8347 230.812 35.8053 230.812 37.064C230.812 40.008 228.487 41.48 223.836 41.48ZM240.397 41.48C237.751 41.48 235.714 40.7867 234.285 39.4C232.855 37.992 232.141 35.976 232.141 33.352C232.141 30.7067 232.845 28.68 234.253 27.272C235.661 25.864 237.709 25.16 240.397 25.16C243.085 25.16 245.133 25.864 246.541 27.272C247.949 28.68 248.653 30.7067 248.653 33.352C248.653 35.976 247.938 37.992 246.509 39.4C245.079 40.7867 243.042 41.48 240.397 41.48ZM240.397 38.184C241.549 38.184 242.381 37.8 242.893 37.032C243.405 36.264 243.661 35.0373 243.661 33.352C243.661 31.624 243.405 30.376 242.893 29.608C242.381 28.84 241.549 28.456 240.397 28.456C239.245 28.456 238.413 28.84 237.901 29.608C237.41 30.376 237.165 31.624 237.165 33.352C237.165 35.0373 237.41 36.264 237.901 37.032C238.413 37.8 239.245 38.184 240.397 38.184ZM249.985 37.736H250.593C251.446 37.736 251.873 37.3307 251.873 36.52V30.12C251.873 29.7147 251.777 29.416 251.585 29.224C251.393 29.032 251.083 28.936 250.657 28.936H249.985V25.64H255.041L255.265 27.72C256.609 26.0133 258.561 25.16 261.121 25.16C262.977 25.16 264.331 25.6187 265.185 26.536C266.059 27.432 266.497 28.7653 266.497 30.536V36.552C266.497 37.3413 266.913 37.736 267.745 37.736H268.481V41H261.441V30.568C261.441 29.7573 261.27 29.1813 260.929 28.84C260.609 28.4773 260.086 28.296 259.361 28.296C258.593 28.296 257.995 28.4987 257.569 28.904C257.142 29.3093 256.929 29.928 256.929 30.76V36.552C256.929 36.9573 257.014 37.256 257.185 37.448C257.355 37.64 257.643 37.736 258.049 37.736H258.689V41H249.985V37.736ZM278.124 41.48C276.481 41.48 275.009 41.1813 273.708 40.584C272.406 39.9653 271.382 39.0587 270.636 37.864C269.889 36.6693 269.516 35.2187 269.516 33.512C269.516 30.8027 270.284 28.7333 271.82 27.304C273.356 25.8747 275.468 25.16 278.156 25.16C279.628 25.16 280.854 25.3307 281.836 25.672C282.838 25.992 283.82 26.5253 284.78 27.272V30.92H280.556V29.128C280.214 28.9147 279.862 28.7653 279.5 28.68C279.137 28.5947 278.678 28.552 278.124 28.552C277.036 28.552 276.161 28.968 275.5 29.8C274.838 30.632 274.508 31.8693 274.508 33.512C274.508 35.0693 274.902 36.2213 275.692 36.968C276.502 37.7147 277.644 38.088 279.116 38.088C280.78 38.088 282.177 37.6827 283.308 36.872L284.94 39.496C283.937 40.2427 282.945 40.7547 281.964 41.032C281.004 41.3307 279.724 41.48 278.124 41.48ZM291.201 41.48C289.366 41.48 287.979 41.1067 287.041 40.36C286.123 39.592 285.665 38.5147 285.665 37.128C285.665 35.5493 286.187 34.376 287.233 33.608C288.278 32.8187 289.814 32.36 291.841 32.232L295.233 32.008V30.216C295.233 29.5547 295.083 29.0853 294.785 28.808C294.486 28.5093 293.995 28.36 293.312 28.36C292.566 28.36 291.894 28.5627 291.297 28.968V30.12H287.073V26.952C289.035 25.7573 291.179 25.16 293.505 25.16C295.809 25.16 297.515 25.6613 298.625 26.664C299.755 27.6667 300.321 29.0213 300.321 30.728V36.68C300.321 37.0853 300.395 37.384 300.545 37.576C300.715 37.7467 300.982 37.832 301.345 37.832H301.825V41H297.569L297.121 38.984C296.353 39.9013 295.531 40.552 294.657 40.936C293.803 41.2987 292.651 41.48 291.201 41.48ZM292.353 38.344C293.291 38.344 294.006 38.1413 294.497 37.736C294.987 37.3093 295.233 36.6907 295.233 35.88V34.664L292.353 34.888C291.606 34.952 291.073 35.1227 290.753 35.4C290.454 35.6773 290.305 36.1147 290.305 36.712C290.305 37.8 290.987 38.344 292.353 38.344ZM302.86 37.736H303.628C304.076 37.736 304.396 37.64 304.588 37.448C304.801 37.2347 304.908 36.9147 304.908 36.488V24.104C304.908 23.6773 304.822 23.3787 304.652 23.208C304.502 23.016 304.225 22.92 303.82 22.92H302.86V19.816H309.964V36.552C309.964 37.3413 310.38 37.736 311.212 37.736H311.98V41H302.86V37.736ZM313.016 37.736H313.784C314.232 37.736 314.552 37.64 314.744 37.448C314.957 37.2347 315.064 36.9147 315.064 36.488V24.104C315.064 23.6773 314.978 23.3787 314.808 23.208C314.658 23.016 314.381 22.92 313.976 22.92H313.016V19.816H320.12V36.552C320.12 37.3413 320.536 37.736 321.368 37.736H322.136V41H313.016V37.736ZM323.492 37.608H327.204V41H323.492V37.608ZM337.499 41.48C335.856 41.48 334.384 41.1813 333.083 40.584C331.781 39.9653 330.757 39.0587 330.011 37.864C329.264 36.6693 328.891 35.2187 328.891 33.512C328.891 30.8027 329.659 28.7333 331.195 27.304C332.731 25.8747 334.843 25.16 337.531 25.16C339.003 25.16 340.229 25.3307 341.211 25.672C342.213 25.992 343.195 26.5253 344.155 27.272V30.92H339.931V29.128C339.589 28.9147 339.237 28.7653 338.875 28.68C338.512 28.5947 338.053 28.552 337.499 28.552C336.411 28.552 335.536 28.968 334.875 29.8C334.213 30.632 333.883 31.8693 333.883 33.512C333.883 35.0693 334.277 36.2213 335.067 36.968C335.877 37.7147 337.019 38.088 338.491 38.088C340.155 38.088 341.552 37.6827 342.683 36.872L344.315 39.496C343.312 40.2427 342.32 40.7547 341.339 41.032C340.379 41.3307 339.099 41.48 337.499 41.48ZM353.928 41.48C351.283 41.48 349.245 40.7867 347.816 39.4C346.387 37.992 345.672 35.976 345.672 33.352C345.672 30.7067 346.376 28.68 347.784 27.272C349.192 25.864 351.24 25.16 353.928 25.16C356.616 25.16 358.664 25.864 360.072 27.272C361.48 28.68 362.184 30.7067 362.184 33.352C362.184 35.976 361.469 37.992 360.04 39.4C358.611 40.7867 356.573 41.48 353.928 41.48ZM353.928 38.184C355.08 38.184 355.912 37.8 356.424 37.032C356.936 36.264 357.192 35.0373 357.192 33.352C357.192 31.624 356.936 30.376 356.424 29.608C355.912 28.84 355.08 28.456 353.928 28.456C352.776 28.456 351.944 28.84 351.432 29.608C350.941 30.376 350.696 31.624 350.696 33.352C350.696 35.0373 350.941 36.264 351.432 37.032C351.944 37.8 352.776 38.184 353.928 38.184ZM363.516 37.736H364.124C364.977 37.736 365.404 37.3307 365.404 36.52V30.12C365.404 29.3093 364.988 28.904 364.156 28.904H363.516V25.64H368.444L368.7 27.816C369.958 26.0453 371.846 25.16 374.364 25.16C376.113 25.16 377.489 25.8747 378.492 27.304C379.046 26.5573 379.708 26.0133 380.476 25.672C381.265 25.3307 382.172 25.16 383.196 25.16C385.052 25.16 386.396 25.608 387.228 26.504C388.06 27.4 388.476 28.744 388.476 30.536V36.552C388.476 37.3413 388.881 37.736 389.692 37.736H390.428V41H383.484V30.536C383.484 29.7253 383.324 29.1493 383.004 28.808C382.684 28.4667 382.182 28.296 381.5 28.296C380.753 28.296 380.188 28.488 379.804 28.872C379.441 29.256 379.26 29.8533 379.26 30.664V36.552C379.26 36.9573 379.345 37.256 379.516 37.448C379.686 37.64 379.985 37.736 380.412 37.736H381.148V41H374.588V30.568C374.588 29.7787 374.428 29.2027 374.108 28.84C373.788 28.4773 373.297 28.296 372.636 28.296C371.868 28.296 371.292 28.4987 370.908 28.904C370.524 29.288 370.332 29.9067 370.332 30.76V36.552C370.332 36.9573 370.417 37.256 370.588 37.448C370.758 37.64 371.046 37.736 371.452 37.736H372.124V41H363.516V37.736Z" fill="#5EB90B"/>
<circle cx="31" cy="31" r="29.5" stroke="#5EB90B" stroke-width="3"/>
<path d="M40.1423 36.5378C39.78 36.5378 39.4348 36.3285 39.2801 35.978C39.0714 35.5056 39.2883 34.9545 39.7642 34.7474C40.3042 34.5131 40.6609 34.0748 40.7437 33.5461C40.8123 33.11 40.6729 32.6933 40.3716 32.4298C39.9812 32.0891 39.943 31.499 40.2862 31.1117C40.6291 30.7241 41.2234 30.6863 41.6138 31.027C42.4007 31.714 42.7706 32.7628 42.6034 33.8329C42.4224 34.9881 41.6434 35.9696 40.5196 36.4587C40.3963 36.5124 40.2682 36.5378 40.1423 36.5378L40.1423 36.5378Z" fill="#5EB90B" stroke="#5EB90B"/>
<path d="M39.1782 51.9827C35.5202 51.9827 32.5045 49.0697 32.4239 45.4207C32.3726 43.0883 33.5773 40.8588 35.5685 39.6029C36.0062 39.3266 36.5874 39.4557 36.8673 39.8906C37.1457 40.3263 37.016 40.9031 36.5773 41.1802C35.1387 42.0875 34.2679 43.6966 34.3049 45.3795C34.3641 48.048 36.5937 50.1987 39.2864 50.1129C41.4204 50.0667 43.255 48.6662 43.852 46.6279C43.9239 46.383 44.0937 46.1778 44.3215 46.0601C44.5493 45.9424 44.8157 45.9223 45.0593 46.0048C45.4127 46.1244 45.7728 46.1767 46.1415 46.1725C47.8693 46.1347 49.2441 44.7057 49.2058 42.9865C49.1871 42.1159 48.7959 41.2866 48.1338 40.712C47.9494 40.5519 47.8351 40.327 47.8153 40.0848C47.7943 39.8282 47.8782 39.5492 48.0517 39.358C48.2252 39.1665 48.4688 39.0302 48.7281 39.0242C49.4441 39.0087 50.1111 38.7172 50.6065 38.2036C51.1019 37.6899 51.3664 37.0154 51.3503 36.3041C51.3319 35.4831 50.9419 34.7283 50.2805 34.234C49.8657 33.924 49.7825 33.3381 50.095 32.9259C50.4064 32.5144 50.9974 32.4304 51.4125 32.7416C52.5374 33.5822 53.2003 34.8658 53.2318 36.2629C53.2584 37.4734 52.8091 38.6215 51.966 39.4954C51.519 39.9598 50.9895 40.3168 50.4083 40.5541C50.8306 41.2756 51.069 42.0981 51.0877 42.9456C51.148 45.6952 48.9477 47.9803 46.1834 48.0404C45.9024 48.0431 45.627 48.0295 45.3519 47.9893C44.3058 50.3535 41.984 51.9233 39.328 51.9811C39.2778 51.9823 39.228 51.9827 39.1781 51.9827L39.1782 51.9827Z" fill="#5EB90B" stroke="#5EB90B"/>
<path d="M47.6888 35.315C47.1788 35.315 46.7599 34.9099 46.7483 34.4012C46.7374 33.8853 47.1492 33.458 47.6686 33.4466C48.6398 33.4258 49.5444 33.0306 50.2155 32.3342C50.887 31.6377 51.2456 30.7228 51.2239 29.7592C51.1954 28.4669 50.4662 27.281 49.3219 26.6641L48.943 26.4884C48.6972 26.3734 48.5136 26.1587 48.4391 25.8991C48.3645 25.6394 48.4068 25.3608 48.5548 25.1345C49.0262 24.4142 49.2649 23.5773 49.2458 22.7146C49.2207 21.5719 48.7489 20.5079 47.9178 19.7179C47.0867 18.9283 46.0101 18.5074 44.8444 18.532C43.6937 18.5566 42.622 19.0252 41.826 19.8507C41.0298 20.6763 40.606 21.7599 40.6311 22.9019C40.642 23.4178 40.2305 23.8452 39.7108 23.8565C39.191 23.8459 38.7609 23.4579 38.7493 22.9428C38.7133 21.3012 39.323 19.7447 40.4659 18.5588C41.6092 17.373 43.1497 16.6995 44.8025 16.6636C48.2161 16.6064 51.0517 19.2852 51.127 22.6733C51.1468 23.5723 50.9711 24.4516 50.6147 25.2624C52.1372 26.2677 53.065 27.9252 53.1047 29.7176C53.1369 31.1809 52.5932 32.5682 51.5744 33.6254C50.5555 34.6825 49.1829 35.2825 47.7096 35.3143C47.7028 35.3151 47.6961 35.3151 47.689 35.3151L47.6888 35.315Z" fill="#5EB90B" stroke="#5EB90B"/>
<path d="M46.4639 18.5773C46.4084 18.5773 46.3518 18.5728 46.2952 18.5622C45.7838 18.4702 45.4446 17.9842 45.5372 17.4766C45.578 17.2514 45.5964 17.0212 45.5915 16.7937C45.5507 14.931 43.9694 13.4302 42.1157 13.4904C41.0226 13.5135 40.0008 14.0639 39.3814 14.961C39.0884 15.3868 38.5027 15.4958 38.0736 15.2032C37.6449 14.9118 37.5355 14.3304 37.8297 13.9046C38.7905 12.5124 40.3774 11.6592 42.0745 11.6221C44.9983 11.5615 47.4089 13.8607 47.4726 16.7514C47.4804 17.1038 47.4523 17.4604 47.3886 17.809C47.3062 18.2613 46.9101 18.5774 46.4638 18.5774L46.4639 18.5773Z" fill="#5EB90B" stroke="#5EB90B"/>
<path d="M33.365 46.3344C32.8487 46.3344 32.4282 45.9211 32.4241 45.4082L32.1581 13.4689C32.0929 10.5248 34.4622 8.06631 37.4411 8.00081C40.0469 7.95652 42.3158 9.7359 42.8475 12.2602C42.9535 12.7652 42.6275 13.2599 42.119 13.3659C41.6124 13.4703 41.1122 13.1479 41.0054 12.6425C40.6592 10.9986 39.17 9.80627 37.4823 9.86877C36.5418 9.88921 35.666 10.2719 35.0159 10.9464C34.3654 11.6209 34.0185 12.5063 34.0398 13.44L34.3058 45.3919C34.3099 45.9078 33.8925 46.3295 33.3728 46.3337C33.3702 46.334 33.3672 46.334 33.3649 46.334L33.365 46.3344Z" fill="#5EB90B" stroke="#5EB90B"/>
<path d="M40.8089 28.5901C39.9961 28.5901 39.1785 28.4084 38.4126 28.0496C37.7741 27.7498 37.2087 27.3459 36.7313 26.8482C36.3731 26.4746 36.3877 25.8833 36.7639 25.5279C37.1401 25.1725 37.7356 25.1873 38.0938 25.5605C38.4108 25.8905 38.7885 26.1597 39.216 26.3607C40.0569 26.7539 40.982 26.8296 41.8241 26.5715C42.6346 26.3228 43.2683 25.7921 43.6085 25.0763C43.7629 24.7515 43.8502 24.4037 43.8671 24.0414C43.8922 23.5259 44.3426 23.1508 44.8515 23.1523C45.3704 23.1769 45.771 23.6145 45.7467 24.1296C45.7174 24.7387 45.5705 25.3258 45.3097 25.8738C44.7413 27.0692 43.7004 27.9512 42.3787 28.3565C41.8687 28.5125 41.34 28.5901 40.809 28.5901L40.8089 28.5901Z" fill="#5EB90B" stroke="#5EB90B"/>
<path d="M45.1698 47.9401C45.0881 47.9401 45.0049 47.9291 44.9221 47.9068C42.8592 47.3488 41.4192 45.4756 41.4192 43.3509C41.4192 42.2509 41.8089 41.1794 42.5164 40.3341C42.8484 39.9374 43.4416 39.8825 43.8414 40.2126C44.2412 40.5423 44.2955 41.1313 43.9635 41.5279C43.5363 42.0382 43.301 42.6854 43.301 43.3505C43.301 44.6345 44.1711 45.7666 45.4167 46.1035C45.9184 46.239 46.2137 46.7526 46.0773 47.25C45.963 47.6664 45.5838 47.94 45.1698 47.94V47.9401Z" fill="#5EB90B" stroke="#5EB90B"/>
<path d="M27.1219 2H24.8469L24.9564 17.3672C24.9955 18.1992 24.682 18.6744 24.0155 18.7139L20.3292 18.9515C18.996 19.0305 17.8195 19.9813 17.4664 21.2886C16.5252 24.4576 16.1332 27.7057 16.2114 31.1916V31.5083C16.2899 34.9939 16.8386 38.2423 17.8977 41.3719C18.3291 42.6791 19.5447 43.5108 20.8782 43.5901L24.4859 43.6694H24.5641C24.5641 43.6694 24.9955 43.7089 25.2307 43.9465C25.4268 44.1447 25.5445 44.5011 25.5444 44.9764L25.6553 60H27.9338L27.8189 44.7398C27.8189 43.3931 27.3094 42.5611 26.8386 42.0855C25.9759 41.2141 24.8387 41.1745 24.5644 41.2141L20.9567 41.2143C20.5645 41.2143 20.1331 40.9372 20.0549 40.541C19.0745 37.6492 18.5255 34.6386 18.4864 31.3508V31.0341C18.4079 27.7861 18.761 24.7359 19.6235 21.8045C19.7414 21.3688 20.094 21.0916 20.5257 21.0518L24.1333 20.8139C24.3686 20.8139 25.506 20.6951 26.3687 19.8236C26.8 19.3879 27.3099 18.5561 27.2315 17.2091L27.1219 2Z" fill="#5EB90B" stroke="#5EB90B"/>
</svg>
