<svg width="18" height="18" viewBox="0 0 18 18" fill="none" xmlns="http://www.w3.org/2000/svg">
<path d="M0.779213 8.2208H15.3398L11.8654 4.7462C11.5611 4.44201 11.5611 3.94854 11.8654 3.64439C12.1698 3.34001 12.6633 3.34001 12.9672 3.64439L17.7717 8.44899C18.0761 8.75319 18.0761 9.2467 17.7717 9.55081L12.9672 14.3556C12.8151 14.5079 12.6157 14.5839 12.4163 14.5839C12.217 14.5839 12.0176 14.5079 11.8654 14.3556C11.5611 14.0514 11.5611 13.558 11.8654 13.2539L15.3398 9.77909H0.779213C0.348927 9.77909 0 9.43021 0 8.99992C0 8.56963 0.348881 8.2208 0.779213 8.2208Z" fill="white"/>
</svg>
