<svg width="18" height="18" viewBox="0 0 18 18" fill="none" xmlns="http://www.w3.org/2000/svg">
<path d="M17.2208 8.2208H2.66019L6.13456 4.74621C6.43894 4.44201 6.43894 3.94855 6.13456 3.6444C5.83019 3.34002 5.33672 3.34002 5.03279 3.6444L0.228283 8.449C-0.0760942 8.75319 -0.0760942 9.2467 0.228283 9.55081L5.03279 14.3556C5.18494 14.5079 5.38433 14.5839 5.58368 14.5839C5.78303 14.5839 5.98242 14.5079 6.13456 14.3556C6.43894 14.0514 6.43894 13.558 6.13456 13.2539L2.66019 9.77909H17.2208C17.6511 9.77909 18 9.43021 18 8.99993C18 8.56964 17.6511 8.2208 17.2208 8.2208Z" fill="#5EB90B"/>
</svg>
