<svg width="12" height="8" viewBox="0 0 12 8" fill="none" xmlns="http://www.w3.org/2000/svg">
<path d="M0.191807 1.04845L0.584883 0.652642C0.708591 0.529031 0.873178 0.460933 1.04908 0.460933C1.22489 0.460933 1.38967 0.529031 1.51338 0.652642L5.99732 5.13678L10.4864 0.647666C10.6099 0.524055 10.7747 0.456055 10.9505 0.456055C11.1263 0.456055 11.2912 0.524055 11.4148 0.647666L11.808 1.04104C12.064 1.29684 12.064 1.71353 11.808 1.96934L6.46317 7.33338C6.33966 7.45689 6.17507 7.54392 5.99771 7.54392H5.99566C5.81975 7.54392 5.65517 7.45679 5.53165 7.33338L0.191807 1.98387C0.0680981 1.86036 0.00019455 1.6908 0 1.51499C0 1.33909 0.0680981 1.17187 0.191807 1.04845Z" fill="#212121"/>
</svg>
