<svg width="24" height="26" viewBox="0 0 24 26" fill="none" xmlns="http://www.w3.org/2000/svg">
<path d="M21.5033 20.7915L20.4315 7.28603C20.3647 6.41594 19.6289 5.73433 18.7562 5.73433H16.6392V5.63917C16.6392 3.08111 14.5581 1 12.0001 1C9.44199 1 7.36088 3.08111 7.36088 5.63917V5.73433H5.24391C4.37124 5.73433 3.63535 6.41589 3.56879 7.2842L2.49666 20.7933C2.41369 21.8749 2.78893 22.9518 3.52608 23.7476C4.26324 24.5435 5.30822 25 6.39305 25H17.607C18.6918 25 19.7368 24.5435 20.474 23.7476C21.2112 22.9517 21.5864 21.8749 21.5033 20.7915ZM8.76666 5.63917C8.76666 3.85628 10.2172 2.40578 12.0001 2.40578C13.7829 2.40578 15.2334 3.85633 15.2334 5.63917V5.73433H8.76666V5.63917ZM19.4426 22.7924C18.9637 23.3095 18.3118 23.5942 17.607 23.5942H6.3931C5.68829 23.5942 5.03644 23.3095 4.55747 22.7924C4.07855 22.2753 3.84446 21.6035 3.89827 20.9027L4.9703 7.39352C4.98118 7.25139 5.10136 7.14011 5.24391 7.14011H7.36088V8.87144C7.36088 9.25961 7.6756 9.57433 8.06377 9.57433C8.45194 9.57433 8.76666 9.25961 8.76666 8.87144V7.14011H15.2334V8.87144C15.2334 9.25961 15.5482 9.57433 15.9363 9.57433C16.3245 9.57433 16.6392 9.25961 16.6392 8.87144V7.14011H18.7562C18.8987 7.14011 19.0189 7.25144 19.03 7.39539L20.1018 20.9008C20.1557 21.6035 19.9215 22.2753 19.4426 22.7924Z" fill="#212121" stroke="#212121" stroke-width="0.4"/>
</svg>
